<svg xmlns="http://www.w3.org/2000/svg" xmlns:xlink="http://www.w3.org/1999/xlink" version="1.1" id="Layer_1" x="0px" y="0px" width="100px" height="100px" viewBox="5.0 -10.0 100.0 135.0" enable-background="new 0 0 100 100" xml:space="preserve">
<path d="M25.274,7.554h-9.512c-2.625,0-4.754,2.13-4.754,4.756v9.51c0,2.626,2.13,4.756,4.754,4.756h9.512  c2.625,0,4.754-2.13,4.754-4.756v-9.51C30.028,9.684,27.898,7.554,25.274,7.554z M18.701,22.862l-0.007-0.008l-0.003,0.008  l-5.308-5.31l2.638-2.638l2.673,2.673l6.317-6.318l2.638,2.636L18.701,22.862z"/>
<path d="M90.447,17.064c0,5.254-4.256,9.512-9.512,9.512H42.895c-5.255,0-9.512-4.258-9.512-9.512l0,0  c0-5.252,4.256-9.51,9.512-9.51h38.041C86.191,7.554,90.447,11.812,90.447,17.064L90.447,17.064z"/>
<path d="M25.274,29.931h-9.512c-2.625,0-4.754,2.13-4.754,4.756v9.51c0,2.626,2.13,4.756,4.754,4.756h9.512  c2.625,0,4.754-2.129,4.754-4.756v-9.51C30.028,32.061,27.898,29.931,25.274,29.931z M18.701,45.239l-0.007-0.008l-0.003,0.008  l-5.308-5.31l2.638-2.638l2.673,2.674l6.317-6.319l2.638,2.636L18.701,45.239z"/>
<path d="M90.447,39.441c0,5.254-4.256,9.512-9.512,9.512H42.895c-5.255,0-9.512-4.258-9.512-9.512l0,0  c0-5.252,4.256-9.51,9.512-9.51h38.041C86.191,29.931,90.447,34.189,90.447,39.441L90.447,39.441z"/>
<path d="M25.274,52.309h-9.512c-2.625,0-4.754,2.13-4.754,4.758v9.508c0,2.628,2.13,4.758,4.754,4.758h9.512  c2.625,0,4.754-2.13,4.754-4.758v-9.508C30.028,54.438,27.898,52.309,25.274,52.309z M18.701,67.616l-0.007-0.006l-0.003,0.006  l-5.308-5.308l2.638-2.638l2.673,2.674l6.317-6.32l2.638,2.638L18.701,67.616z"/>
<path d="M91.008,61.82c0,5.252-4.26,9.512-9.509,9.512H43.452c-5.249,0-9.509-4.26-9.509-9.512l0,0c0-5.252,4.26-9.512,9.509-9.512  h38.047C86.748,52.309,91.008,56.568,91.008,61.82L91.008,61.82z"/>
<path d="M25.274,74.688h-9.512c-2.625,0-4.754,2.13-4.754,4.754v9.512c0,2.625,2.13,4.755,4.754,4.755h9.512  c2.625,0,4.754-2.13,4.754-4.755v-9.512C30.028,76.817,27.898,74.688,25.274,74.688z M18.701,89.995l-0.007-0.01l-0.003,0.01  l-5.308-5.312l2.638-2.638l2.673,2.674l6.317-6.317l2.638,2.635L18.701,89.995z"/>
<path d="M91.008,84.195c0,5.256-4.26,9.513-9.509,9.513H43.452c-5.249,0-9.509-4.257-9.509-9.513l0,0  c0-5.252,4.26-9.508,9.509-9.508h38.047C86.748,74.688,91.008,78.943,91.008,84.195L91.008,84.195z"/>
<text x="0.0" y="117.5" font-size="5.0" font-weight="bold" font-family="Helvetica Neue, Helvetica, Arial-Unicode, Arial, Sans-serif" fill="#000000">Created by Sherrinford</text><text x="0.0" y="122.5" font-size="5.0" font-weight="bold" font-family="Helvetica Neue, Helvetica, Arial-Unicode, Arial, Sans-serif" fill="#000000">from the Noun Project</text></svg>